mtllib materials.mtl
v -0.17625 -0.4031246 0.0006248653
v 0.07375008 -0.4031246 0.0006248951
v 0.0737502 0.4668753 0.0006248951
v -0.1762499 0.4668753 0.0006248653
v -0.17625 -0.4031246 0.02062485
v -0.1762499 0.4668753 0.02062485
v 0.0737502 0.4668753 0.02062488
v 0.07375008 -0.4031246 0.02062488
v -0.1762499 0.4468753 0.02062479
v 0.07375008 0.4468753 0.02062485
v 0.07375008 0.4668753 0.02062485
v -0.1762499 0.4668753 0.02062479
v -0.1762498 0.4468753 0.7806251
v -0.1762498 0.4668753 0.7806251
v 0.0737502 0.4668753 0.7806249
v 0.0737502 0.4468753 0.780625
v -0.1762501 -0.4031246 0.7806249
v 0.07374996 -0.4031246 0.7806249
v 0.07375008 0.4668753 0.7806249
v -0.17625 0.4668753 0.7806249
v -0.1762501 -0.4031246 0.8006248
v -0.17625 0.4668753 0.8006248
v 0.07375008 0.4668753 0.8006248
v 0.07374996 -0.4031246 0.8006248
v 0.07375008 -0.4031246 0.02062488
v 0.07375008 -0.3831246 0.02062488
v -0.1762499 -0.3831246 0.02062488
v -0.1762499 -0.4031246 0.02062488
v 0.07375008 -0.4031246 0.7806249
v -0.1762499 -0.4031246 0.7806249
v -0.1762499 -0.3831246 0.7806249
v 0.07375008 -0.3831246 0.7806249
v 0.07375008 -0.1031246 0.02062488
v 0.07375008 -0.08312464 0.02062488
v -0.1762499 -0.08312464 0.02062488
v -0.1762499 -0.1031246 0.02062488
v 0.07375008 -0.1031246 0.7806249
v -0.1762499 -0.1031246 0.7806249
v -0.1762499 -0.08312464 0.7806249
v 0.07375008 -0.08312464 0.7806249
v 0.07375008 0.1668754 0.02062488
v 0.07375008 0.1868753 0.02062488
v -0.1762499 0.1868753 0.02062488
v -0.1762499 0.1668754 0.02062488
v 0.07375008 0.1668754 0.7806249
v -0.1762499 0.1668754 0.7806249
v -0.1762499 0.1868753 0.7806249
v 0.07375008 0.1868753 0.7806249
v -0.1762499 -0.3931246 0.01062489
v -0.1762499 0.4568753 0.01062489
v -0.1862499 0.4568753 0.01062489
v -0.1862499 -0.3931246 0.01062489
v -0.1762499 -0.3931246 0.7906249
v -0.1862499 -0.3931246 0.7906249
v -0.1862499 0.4568753 0.7906249
v -0.1762499 0.4568753 0.7906249
v -0.19625 -0.3431246 0.0306249
v -0.18625 -0.3431246 0.0306249
v -0.18625 -0.1431248 0.03062487
v -0.19625 -0.1431248 0.03062487
v -0.19625 -0.3431246 0.05062491
v -0.19625 -0.1431248 0.05062488
v -0.18625 -0.1431248 0.05062488
v -0.18625 -0.3431246 0.05062491
v -0.1762501 -0.3931246 -0.7893749
v -0.1762501 0.4568753 -0.7893749
v -0.1862501 0.4568753 -0.7893749
v -0.1862501 -0.3931246 -0.7893749
v -0.1762501 -0.3931246 -0.009374917
v -0.1862501 -0.3931246 -0.009374917
v -0.1862501 0.4568753 -0.009374917
v -0.1762501 0.4568753 -0.009374917
v -0.1762501 0.4468753 -0.779375
v 0.0737499 0.4468753 -0.779375
v 0.0737499 0.4668753 -0.779375
v -0.1762501 0.4668753 -0.779375
v -0.17625 0.4468753 -0.01937464
v -0.17625 0.4668753 -0.01937467
v 0.07375002 0.4668753 -0.01937482
v 0.07375002 0.4468753 -0.01937479
v -0.1762502 -0.4031246 -0.7993751
v 0.0737499 -0.4031246 -0.7993751
v 0.07375002 0.4668753 -0.7993751
v -0.17625 0.4668753 -0.7993751
v -0.1762502 -0.4031246 -0.7793751
v -0.17625 0.4668753 -0.7793751
v 0.07375002 0.4668753 -0.7793751
v 0.0737499 -0.4031246 -0.7793751
v 0.0737499 0.1668754 -0.779375
v 0.0737499 0.1868753 -0.779375
v -0.1762501 0.1868753 -0.779375
v -0.1762501 0.1668754 -0.779375
v 0.0737499 0.1668754 -0.01937491
v -0.1762501 0.1668754 -0.01937491
v -0.1762501 0.1868753 -0.01937491
v 0.0737499 0.1868753 -0.01937491
v -0.1762503 -0.4031246 -0.01937494
v 0.07374978 -0.4031246 -0.01937491
v 0.0737499 0.4668753 -0.01937491
v -0.1762502 0.4668753 -0.01937494
v -0.1762503 -0.4031246 0.0006250441
v -0.1762502 0.4668753 0.0006250441
v 0.0737499 0.4668753 0.0006250739
v 0.07374978 -0.4031246 0.0006250739
v 0.0737499 -0.1031246 -0.779375
v 0.0737499 -0.08312464 -0.779375
v -0.1762501 -0.08312464 -0.779375
v -0.1762501 -0.1031246 -0.779375
v 0.0737499 -0.1031246 -0.01937491
v -0.1762501 -0.1031246 -0.01937491
v -0.1762501 -0.08312464 -0.01937491
v 0.0737499 -0.08312464 -0.01937491
v 0.0737499 -0.4031246 -0.779375
v 0.0737499 -0.3831246 -0.779375
v -0.1762501 -0.3831246 -0.779375
v -0.1762501 -0.4031246 -0.779375
v 0.0737499 -0.4031246 -0.01937491
v -0.1762501 -0.4031246 -0.01937491
v -0.1762501 -0.3831246 -0.01937491
v 0.0737499 -0.3831246 -0.01937491
v -0.19625 -0.3431246 -0.05937511
v -0.18625 -0.3431246 -0.05937511
v -0.18625 -0.1431248 -0.05937514
v -0.19625 -0.1431248 -0.05937514
v -0.19625 -0.3431246 -0.0393751
v -0.19625 -0.1431248 -0.03937513
v -0.18625 -0.1431248 -0.03937513
v -0.18625 -0.3431246 -0.0393751
vn 8.195637E-08 -4.285391E-11 -1
vn -1.452863E-07 -4.923808E-10 1
vn -2.12322E-07 -1 2.112089E-14
vn -1.238853E-07 1 7.446931E-14
vn -1 1.4059E-07 -1.007113E-07
vn 1 -1.748456E-07 -1.346671E-07
vn 2.384185E-07 -4.952207E-07 -1
vn 5.960466E-07 4.654179E-07 1
vn -4.513489E-08 -1 8.784043E-08
vn -3.09395E-08 1 -8.784042E-08
vn -1 1.748456E-07 1.495506E-07
vn 1 -1.748456E-07 -1.194651E-07
vn 8.195637E-08 -4.285391E-11 -1
vn -1.452863E-07 -4.923808E-10 1
vn -2.12322E-07 -1 2.112089E-14
vn -1.238853E-07 1 7.446931E-14
vn -1 1.4059E-07 -1.007113E-07
vn 1 -1.748456E-07 -1.346671E-07
vn 5.170707E-08 0 -1
vn 7.867817E-08 0 1
vn 1 -4.754647E-09 0
vn -1 1.23915E-07 0
vn -3.72529E-08 -1 -4.901695E-10
vn -3.72529E-08 1 4.901695E-10
vn 5.170707E-08 0 -1
vn 7.867817E-08 0 1
vn 1 -4.754647E-09 0
vn -1 1.23915E-07 0
vn -3.72529E-08 -1 -4.901695E-10
vn -3.72529E-08 1 4.901695E-10
vn 5.170707E-08 0 -1
vn 7.867817E-08 0 1
vn 1 -4.754647E-09 0
vn -1 1.23915E-07 0
vn -3.72529E-08 -1 -4.901695E-10
vn -3.72529E-08 1 4.901695E-10
vn -2.033569E-07 0 -1
vn -1.164044E-06 0 1
vn 1 -3.270165E-10 0
vn -1 0 0
vn -2.980232E-06 -1 2.411887E-08
vn -2.980232E-06 1 -2.411887E-08
vn 5.792828E-07 -1.648915E-07 -1
vn 8.177012E-07 1.622603E-07 1
vn -9.357698E-06 -1 1.748461E-07
vn -8.896225E-06 1 -1.748451E-07
vn -1 -6.632354E-15 3.057097E-14
vn 1 -1.748456E-07 -1.257285E-07
vn -2.033569E-07 0 -1
vn -1.164044E-06 0 1
vn 1 -3.270165E-10 0
vn -1 0 0
vn -2.980232E-06 -1 2.411887E-08
vn -2.980232E-06 1 -2.411887E-08
vn 2.384185E-07 -4.952207E-07 -1
vn 5.960466E-07 4.654179E-07 1
vn -4.513489E-08 -1 8.784043E-08
vn -3.09395E-08 1 -8.784042E-08
vn -1 1.748456E-07 1.495506E-07
vn 1 -1.748456E-07 -1.194651E-07
vn 8.195637E-08 -4.285391E-11 -1
vn -1.452863E-07 -4.923808E-10 1
vn -2.12322E-07 -1 2.112089E-14
vn -1.238853E-07 1 7.446931E-14
vn -1 1.4059E-07 -1.007113E-07
vn 1 -1.748456E-07 -1.346671E-07
vn 5.170707E-08 0 -1
vn 7.867817E-08 0 1
vn 1 -4.754647E-09 0
vn -1 1.23915E-07 0
vn -3.72529E-08 -1 -4.901695E-10
vn -3.72529E-08 1 4.901695E-10
vn 8.195637E-08 -4.285391E-11 -1
vn -1.452863E-07 -4.923808E-10 1
vn -2.12322E-07 -1 2.112089E-14
vn -1.238853E-07 1 7.446931E-14
vn -1 1.4059E-07 -1.007113E-07
vn 1 -1.748456E-07 -1.346671E-07
vn 5.170707E-08 0 -1
vn 7.867817E-08 0 1
vn 1 -4.754647E-09 0
vn -1 1.23915E-07 0
vn -3.72529E-08 -1 -4.901695E-10
vn -3.72529E-08 1 4.901695E-10
vn 5.170707E-08 0 -1
vn 7.867817E-08 0 1
vn 1 -4.754647E-09 0
vn -1 1.23915E-07 0
vn -3.72529E-08 -1 -4.901695E-10
vn -3.72529E-08 1 4.901695E-10
vn 5.792828E-07 -1.648915E-07 -1
vn 8.177012E-07 1.622603E-07 1
vn -9.357698E-06 -1 1.748461E-07
vn -8.896225E-06 1 -1.748451E-07
vn -1 -6.632354E-15 3.057097E-14
vn 1 -1.748456E-07 -1.257285E-07
vt -0.2231596 0.1820159
vt -0.2119792 0.2043766
vt -0.2897944 0.2432842
vt -0.3009748 0.2209235
vt 0.2231596 0.1820159
vt 0.3009747 0.2209235
vt 0.2897944 0.2432842
vt 0.2119792 0.2043766
vt -0.0164805 0.07278313
vt -0.01459702 0.07211047
vt -0.006188605 0.09565403
vt -0.008072088 0.09632669
vt 0.01648047 0.07278325
vt 0.008072053 0.0963268
vt 0.006188571 0.09565413
vt 0.01459699 0.07211058
vt -0.1307786 0.2519086
vt -0.1813463 0.3227034
vt -0.1829738 0.321541
vt -0.1324061 0.2507462
vt 0.1307785 0.2519087
vt 0.132406 0.2507462
vt 0.1829737 0.321541
vt 0.1813462 0.3227035
vt -0.2991859 0.2200291
vt -0.2880055 0.2423898
vt -0.2897944 0.2432842
vt -0.3009747 0.2209236
vt 0.2991858 0.2200291
vt 0.3009747 0.2209235
vt 0.2897944 0.2432842
vt 0.2880055 0.2423898
vt -0.01459699 0.0721105
vt 0.05697544 0.04654894
vt 0.06538384 0.07009249
vt -0.006188571 0.09565405
vt 0.01459698 0.07211053
vt 0.006188561 0.09565408
vt -0.06538384 0.07009251
vt -0.05697544 0.04654896
vt -0.1818112 0.3199136
vt -0.1829737 0.321541
vt -0.2448175 0.2773669
vt -0.243655 0.2757395
vt 0.1818112 0.3199136
vt 0.243655 0.2757395
vt 0.2448175 0.2773669
vt 0.1829737 0.321541
vt -0.2231596 0.1820159
vt -0.2119792 0.2043766
vt -0.2897944 0.2432842
vt -0.3009748 0.2209235
vt 0.2231596 0.1820159
vt 0.3009747 0.2209235
vt 0.2897944 0.2432842
vt 0.2119792 0.2043766
vt 0.05697536 0.04654888
vt 0.05885884 0.04587621
vt 0.06726726 0.06941976
vt 0.06538378 0.07009244
vt -0.05697539 0.046549
vt -0.06538381 0.07009255
vt -0.06726729 0.06941988
vt -0.05885888 0.04587632
vt -0.1942498 0.2065721
vt -0.2448175 0.2773668
vt -0.246445 0.2762044
vt -0.1958773 0.2054096
vt 0.1942498 0.2065721
vt 0.1958772 0.2054096
vt 0.2464449 0.2762045
vt 0.2448175 0.2773669
vt -0.2119792 0.2043766
vt -0.2137681 0.2052711
vt -0.2249485 0.1829104
vt -0.2231596 0.1820159
vt 0.2119792 0.2043766
vt 0.2231596 0.1820159
vt 0.2249485 0.1829104
vt 0.2137681 0.2052711
vt 0.1324061 0.2507462
vt 0.1942498 0.2065721
vt 0.1954123 0.2081995
vt 0.1335686 0.2523736
vt -0.132406 0.2507462
vt -0.1335685 0.2523736
vt -0.1954122 0.2081995
vt -0.1942498 0.2065721
vt -0.006188594 0.09565406
vt -0.014597 0.07211052
vt 0.05697538 0.04654895
vt 0.06538379 0.0700925
vt 0.006188587 0.09565409
vt -0.0653838 0.07009251
vt -0.05697539 0.04654897
vt 0.014597 0.07211053
vt -0.2388121 0.217793
vt -0.2406009 0.2186875
vt -0.2517813 0.1963268
vt -0.2499924 0.1954323
vt 0.2388121 0.217793
vt 0.2499924 0.1954323
vt 0.2517813 0.1963268
vt 0.2406009 0.2186875
vt 0.1498432 0.2751582
vt 0.211687 0.2309841
vt 0.2128495 0.2326115
vt 0.1510057 0.2767856
vt -0.1498432 0.2751582
vt -0.1510057 0.2767857
vt -0.2128494 0.2326116
vt -0.2116869 0.2309841
vt -0.006188594 0.09565406
vt -0.014597 0.07211052
vt 0.05697538 0.04654895
vt 0.06538379 0.0700925
vt 0.006188586 0.09565409
vt -0.0653838 0.07009251
vt -0.05697539 0.04654897
vt 0.014597 0.07211053
vt -0.2629616 0.2298678
vt -0.2647505 0.2307622
vt -0.2759308 0.2084015
vt -0.2741419 0.2075071
vt 0.2629616 0.2298678
vt 0.2741419 0.2075071
vt 0.2759308 0.2084015
vt 0.2647505 0.2307622
vt 0.1655367 0.297129
vt 0.2273804 0.2529549
vt 0.2285429 0.2545823
vt 0.1666991 0.2987564
vt -0.1655366 0.297129
vt -0.1666991 0.2987565
vt -0.2285428 0.2545823
vt -0.2273804 0.2529549
vt -0.006188595 0.09565406
vt -0.014597 0.07211052
vt 0.05697538 0.04654895
vt 0.06538379 0.07009249
vt 0.006188586 0.09565409
vt -0.06538381 0.07009251
vt -0.05697539 0.04654897
vt 0.014597 0.07211054
vt -0.224054 0.1824632
vt -0.3000803 0.2204763
vt -0.3005275 0.2195819
vt -0.2245012 0.1815687
vt 0.2240539 0.1824632
vt 0.2245012 0.1815688
vt 0.3005275 0.219582
vt 0.3000802 0.2204764
vt 0.1321736 0.2521411
vt 0.1956448 0.2068046
vt 0.24505 0.2759719
vt 0.1815788 0.3213085
vt -0.1321736 0.2521411
vt -0.1815788 0.3213085
vt -0.24505 0.2759719
vt -0.1956448 0.2068046
vt -0.01553898 0.07244607
vt -0.01587532 0.07150433
vt 0.05758053 0.04527006
vt 0.05791687 0.0462118
vt 0.0155384 0.07244788
vt -0.05791748 0.04621368
vt -0.05758115 0.04527193
vt 0.01587473 0.07150614
vt -0.2294205 0.1829104
vt -0.2289733 0.1838048
vt -0.2468619 0.1927491
vt -0.2473091 0.1918546
vt 0.2294206 0.1829104
vt 0.2473091 0.1918546
vt 0.2468619 0.1927491
vt 0.2289733 0.1838048
vt -0.01432869 0.06988817
vt -0.0124452 0.0692155
vt -0.01210886 0.07015724
vt -0.01399235 0.07082991
vt 0.01432707 0.06989323
vt 0.01399073 0.07083498
vt 0.01210724 0.0701623
vt 0.01244358 0.06922056
vt -0.1367072 0.2550473
vt -0.148332 0.271322
vt -0.1499595 0.2701595
vt -0.1383347 0.2538849
vt 0.1367072 0.2550474
vt 0.1383346 0.2538849
vt 0.1499594 0.2701595
vt 0.1483319 0.271322
vt -0.224054 0.1824631
vt -0.3000803 0.2204763
vt -0.3005275 0.2195819
vt -0.2245012 0.1815687
vt 0.224054 0.1824631
vt 0.2245012 0.1815687
vt 0.3005275 0.2195819
vt 0.3000803 0.2204763
vt 0.06707491 0.2986402
vt 0.1305461 0.2533036
vt 0.1799514 0.322471
vt 0.1164802 0.3678075
vt -0.06707491 0.2986402
vt -0.1164802 0.3678075
vt -0.1799514 0.322471
vt -0.1305461 0.2533036
vt -0.09087831 0.099353
vt -0.09121464 0.09841125
vt -0.01775879 0.07217698
vt -0.01742245 0.07311872
vt 0.09087776 0.09935474
vt 0.01742187 0.07312053
vt 0.0177582 0.07217879
vt 0.09121408 0.098413
vt -0.2991859 0.2200291
vt -0.2880056 0.2423898
vt -0.2897944 0.2432842
vt -0.3009748 0.2209235
vt 0.2991859 0.2200291
vt 0.3009747 0.2209235
vt 0.2897944 0.2432842
vt 0.2880055 0.2423898
vt -0.08993632 0.09901739
vt -0.0183639 0.07345583
vt -0.009955506 0.09699938
vt -0.08152791 0.1225609
vt 0.08993632 0.09901741
vt 0.0815279 0.122561
vt 0.009955499 0.0969994
vt 0.01836389 0.07345585
vt -0.1167125 0.3664126
vt -0.117875 0.3680401
vt -0.1797188 0.323866
vt -0.1785563 0.3222385
vt 0.1167125 0.3664126
vt 0.1785563 0.3222385
vt 0.1797188 0.323866
vt 0.117875 0.3680401
vt -0.2231596 0.1820159
vt -0.2119793 0.2043766
vt -0.2897944 0.2432842
vt -0.3009748 0.2209235
vt 0.2231596 0.1820159
vt 0.3009748 0.2209235
vt 0.2897944 0.2432842
vt 0.2119792 0.2043766
vt -0.09181986 0.09969003
vt -0.08993638 0.09901737
vt -0.08152796 0.1225609
vt -0.08341144 0.1232336
vt 0.09181982 0.09969014
vt 0.08341141 0.1232337
vt 0.08152793 0.122561
vt 0.08993634 0.09901746
vt -0.06567992 0.2984077
vt -0.1162476 0.3692025
vt -0.1178751 0.36804
vt -0.06730739 0.2972452
vt 0.06567985 0.2984077
vt 0.06730731 0.2972452
vt 0.117875 0.3680401
vt 0.1162475 0.3692026
vt -0.2629616 0.2298678
vt -0.2647505 0.2307622
vt -0.2759308 0.2084015
vt -0.274142 0.2075071
vt 0.2629616 0.2298678
vt 0.274142 0.2075071
vt 0.2759308 0.2084015
vt 0.2647505 0.2307622
vt 0.100438 0.343628
vt 0.1622817 0.2994539
vt 0.1634442 0.3010814
vt 0.1016005 0.3452555
vt -0.1004379 0.343628
vt -0.1016004 0.3452555
vt -0.1634442 0.3010814
vt -0.1622817 0.2994539
vt -0.08152794 0.122561
vt -0.08993635 0.0990174
vt -0.01836396 0.07345583
vt -0.009955548 0.09699938
vt 0.08152793 0.122561
vt 0.009955539 0.09699941
vt 0.01836395 0.07345586
vt 0.08993634 0.09901743
vt -0.2231596 0.1820159
vt -0.2119793 0.2043766
vt -0.2897944 0.2432842
vt -0.3009748 0.2209235
vt 0.2231596 0.1820159
vt 0.3009748 0.2209235
vt 0.2897944 0.2432842
vt 0.2119792 0.2043766
vt -0.01836398 0.07345577
vt -0.0164805 0.07278311
vt -0.00807208 0.09632666
vt -0.009955562 0.09699933
vt 0.01836394 0.07345589
vt 0.009955528 0.09699944
vt 0.008072047 0.09632677
vt 0.01648046 0.07278322
vt -0.1291511 0.2530711
vt -0.1797189 0.3238659
vt -0.1813463 0.3227034
vt -0.1307786 0.2519086
vt 0.1291511 0.2530711
vt 0.1307786 0.2519087
vt 0.1813463 0.3227035
vt 0.1797188 0.323866
vt -0.2388121 0.217793
vt -0.2406009 0.2186874
vt -0.2517813 0.1963268
vt -0.2499924 0.1954323
vt 0.2388121 0.217793
vt 0.2499924 0.1954323
vt 0.2517813 0.1963268
vt 0.2406009 0.2186874
vt 0.08474456 0.3216572
vt 0.1465883 0.2774831
vt 0.1477508 0.2791106
vt 0.08590703 0.3232847
vt -0.0847445 0.3216572
vt -0.08590697 0.3232847
vt -0.1477507 0.2791106
vt -0.1465883 0.2774831
vt -0.08152794 0.122561
vt -0.08993635 0.0990174
vt -0.01836396 0.07345583
vt -0.009955548 0.09699938
vt 0.08152793 0.122561
vt 0.009955539 0.09699941
vt 0.01836395 0.07345586
vt 0.08993634 0.09901743
vt -0.2119793 0.2043766
vt -0.2137681 0.205271
vt -0.2249485 0.1829104
vt -0.2231596 0.1820159
vt 0.2119792 0.2043766
vt 0.2231596 0.1820159
vt 0.2249485 0.1829104
vt 0.2137681 0.205271
vt 0.06730741 0.2972452
vt 0.1291512 0.2530711
vt 0.1303136 0.2546986
vt 0.06846989 0.2988727
vt -0.06730737 0.2972452
vt -0.06846984 0.2988727
vt -0.1303136 0.2546986
vt -0.1291511 0.2530711
vt -0.08152793 0.122561
vt -0.08993635 0.0990174
vt -0.01836396 0.07345583
vt -0.009955547 0.09699938
vt 0.08152793 0.122561
vt 0.00995554 0.09699941
vt 0.01836395 0.07345586
vt 0.08993634 0.09901743
vt -0.2294206 0.1829104
vt -0.2289733 0.1838048
vt -0.2468619 0.1927491
vt -0.2473091 0.1918546
vt 0.2294206 0.1829104
vt 0.2473091 0.1918546
vt 0.2468619 0.1927491
vt 0.2289733 0.1838048
vt -0.02280436 0.07291521
vt -0.02092087 0.07224254
vt -0.02058454 0.07318428
vt -0.02246802 0.07385696
vt 0.02280275 0.07292025
vt 0.02246641 0.07386199
vt 0.02058293 0.07318932
vt 0.02091926 0.07224758
vt -0.1293836 0.2602785
vt -0.1410084 0.2765531
vt -0.1426359 0.2753907
vt -0.1310111 0.259116
vt 0.1293835 0.2602785
vt 0.131011 0.259116
vt 0.1426358 0.2753907
vt 0.1410083 0.2765532
o group1375037183
g mesh1375037183
usemtl mat19
f 4/4/1 3/3/1 2/2/1 1/1/1
f 8/8/2 7/7/2 6/6/2 5/5/2
f 2/12/3 8/11/3 5/10/3 1/9/3
f 6/16/4 7/15/4 3/14/4 4/13/4
f 5/20/5 6/19/5 4/18/5 1/17/5
f 3/24/6 7/23/6 8/22/6 2/21/6
o group902927166
g mesh902927166
usemtl mat19
f 12/28/7 11/27/7 10/26/7 9/25/7
f 16/32/8 15/31/8 14/30/8 13/29/8
f 10/36/9 16/35/9 13/34/9 9/33/9
f 14/40/10 15/39/10 11/38/10 12/37/10
f 13/44/11 14/43/11 12/42/11 9/41/11
f 11/48/12 15/47/12 16/46/12 10/45/12
o group691010162
g mesh691010162
usemtl mat19
f 20/52/13 19/51/13 18/50/13 17/49/13
f 24/56/14 23/55/14 22/54/14 21/53/14
f 18/60/15 24/59/15 21/58/15 17/57/15
f 22/64/16 23/63/16 19/62/16 20/61/16
f 21/68/17 22/67/17 20/66/17 17/65/17
f 19/72/18 23/71/18 24/70/18 18/69/18
o group1729371408
g mesh1729371408
usemtl mat19
f 28/76/19 27/75/19 26/74/19 25/73/19
f 32/80/20 31/79/20 30/78/20 29/77/20
f 26/84/21 32/83/21 29/82/21 25/81/21
f 30/88/22 31/87/22 27/86/22 28/85/22
f 29/92/23 30/91/23 28/90/23 25/89/23
f 27/96/24 31/95/24 32/94/24 26/93/24
o group338693900
g mesh338693900
usemtl mat19
f 36/100/25 35/99/25 34/98/25 33/97/25
f 40/104/26 39/103/26 38/102/26 37/101/26
f 34/108/27 40/107/27 37/106/27 33/105/27
f 38/112/28 39/111/28 35/110/28 36/109/28
f 37/116/29 38/115/29 36/114/29 33/113/29
f 35/120/30 39/119/30 40/118/30 34/117/30
o group499639715
g mesh499639715
usemtl mat19
f 44/124/31 43/123/31 42/122/31 41/121/31
f 48/128/32 47/127/32 46/126/32 45/125/32
f 42/132/33 48/131/33 45/130/33 41/129/33
f 46/136/34 47/135/34 43/134/34 44/133/34
f 45/140/35 46/139/35 44/138/35 41/137/35
f 43/144/36 47/143/36 48/142/36 42/141/36
o group960615600
g mesh960615600
usemtl mat19
f 52/148/37 51/147/37 50/146/37 49/145/37
f 56/152/38 55/151/38 54/150/38 53/149/38
f 50/156/39 56/155/39 53/154/39 49/153/39
f 54/160/40 55/159/40 51/158/40 52/157/40
f 53/164/41 54/163/41 52/162/41 49/161/41
f 51/168/42 55/167/42 56/166/42 50/165/42
o group2060640519
g mesh2060640519
usemtl mat23
f 60/172/43 59/171/43 58/170/43 57/169/43
f 64/176/44 63/175/44 62/174/44 61/173/44
f 58/180/45 64/179/45 61/178/45 57/177/45
f 62/184/46 63/183/46 59/182/46 60/181/46
f 61/188/47 62/187/47 60/186/47 57/185/47
f 59/192/48 63/191/48 64/190/48 58/189/48
o group542023393
g mesh542023393
usemtl mat19
f 68/196/49 67/195/49 66/194/49 65/193/49
f 72/200/50 71/199/50 70/198/50 69/197/50
f 66/204/51 72/203/51 69/202/51 65/201/51
f 70/208/52 71/207/52 67/206/52 68/205/52
f 69/212/53 70/211/53 68/210/53 65/209/53
f 67/216/54 71/215/54 72/214/54 66/213/54
o group1594514844
g mesh1594514844
usemtl mat19
f 76/220/55 75/219/55 74/218/55 73/217/55
f 80/224/56 79/223/56 78/222/56 77/221/56
f 74/228/57 80/227/57 77/226/57 73/225/57
f 78/232/58 79/231/58 75/230/58 76/229/58
f 77/236/59 78/235/59 76/234/59 73/233/59
f 75/240/60 79/239/60 80/238/60 74/237/60
o group760577034
g mesh760577034
usemtl mat19
f 84/244/61 83/243/61 82/242/61 81/241/61
f 88/248/62 87/247/62 86/246/62 85/245/62
f 82/252/63 88/251/63 85/250/63 81/249/63
f 86/256/64 87/255/64 83/254/64 84/253/64
f 85/260/65 86/259/65 84/258/65 81/257/65
f 83/264/66 87/263/66 88/262/66 82/261/66
o group1081866414
g mesh1081866414
usemtl mat19
f 92/268/67 91/267/67 90/266/67 89/265/67
f 96/272/68 95/271/68 94/270/68 93/269/68
f 90/276/69 96/275/69 93/274/69 89/273/69
f 94/280/70 95/279/70 91/278/70 92/277/70
f 93/284/71 94/283/71 92/282/71 89/281/71
f 91/288/72 95/287/72 96/286/72 90/285/72
o group697472426
g mesh697472426
usemtl mat19
f 100/292/73 99/291/73 98/290/73 97/289/73
f 104/296/74 103/295/74 102/294/74 101/293/74
f 98/300/75 104/299/75 101/298/75 97/297/75
f 102/304/76 103/303/76 99/302/76 100/301/76
f 101/308/77 102/307/77 100/306/77 97/305/77
f 99/312/78 103/311/78 104/310/78 98/309/78
o group279274495
g mesh279274495
usemtl mat19
f 108/316/79 107/315/79 106/314/79 105/313/79
f 112/320/80 111/319/80 110/318/80 109/317/80
f 106/324/81 112/323/81 109/322/81 105/321/81
f 110/328/82 111/327/82 107/326/82 108/325/82
f 109/332/83 110/331/83 108/330/83 105/329/83
f 107/336/84 111/335/84 112/334/84 106/333/84
o group907665417
g mesh907665417
usemtl mat19
f 116/340/85 115/339/85 114/338/85 113/337/85
f 120/344/86 119/343/86 118/342/86 117/341/86
f 114/348/87 120/347/87 117/346/87 113/345/87
f 118/352/88 119/351/88 115/350/88 116/349/88
f 117/356/89 118/355/89 116/354/89 113/353/89
f 115/360/90 119/359/90 120/358/90 114/357/90
o group49163445
g mesh49163445
usemtl mat23
f 124/364/91 123/363/91 122/362/91 121/361/91
f 128/368/92 127/367/92 126/366/92 125/365/92
f 122/372/93 128/371/93 125/370/93 121/369/93
f 126/376/94 127/375/94 123/374/94 124/373/94
f 125/380/95 126/379/95 124/378/95 121/377/95
f 123/384/96 127/383/96 128/382/96 122/381/96
